<?xml version="1.0" encoding="utf-8"?>
<!-- Generator: Adobe Illustrator 26.5.0, SVG Export Plug-In . SVG Version: 6.00 Build 0)  -->
<svg version="1.1" id="Camada_1" xmlns="http://www.w3.org/2000/svg" xmlns:xlink="http://www.w3.org/1999/xlink" x="0px" y="0px"
	 viewBox="0 0 535.6 536.4" style="enable-background:new 0 0 535.6 536.4;" xml:space="preserve">
<style type="text/css">
	
		.st0{clip-path:url(#SVGID_00000134934214522392116340000012019193513843256746_);fill:url(#SVGID_00000011731129243067113610000000189035797527721889_);}
	
		.st1{clip-path:url(#SVGID_00000035528938902156277240000015949183289908848044_);fill:url(#SVGID_00000031903257850771834190000016978063952093693833_);}
	
		.st2{clip-path:url(#SVGID_00000127753513904028682910000003934292114624127406_);fill:url(#SVGID_00000008120242693012522980000014717802759201214635_);}
	
		.st3{clip-path:url(#SVGID_00000145737899822735398690000005418456933292620471_);fill:url(#SVGID_00000104666052077038299490000003934318450596639648_);}
	
		.st4{clip-path:url(#SVGID_00000171682330416682720470000003765562072481828279_);fill:url(#SVGID_00000132785180950946673400000000536843800664646551_);}
	
		.st5{clip-path:url(#SVGID_00000056395498233525862140000014745746773747546045_);fill:url(#SVGID_00000035499610050741328610000010216325828674116482_);}
	
		.st6{clip-path:url(#SVGID_00000036218671938841796090000006179462374557101744_);fill:url(#SVGID_00000050660384962361492220000010233342809142730922_);}
	
		.st7{clip-path:url(#SVGID_00000095340245950623156950000008087588768412121251_);fill:url(#SVGID_00000096036365958562994890000003826067708819828609_);}
	
		.st8{clip-path:url(#SVGID_00000152944962632873928010000010257087897758561697_);fill:url(#SVGID_00000063633695702473633390000009242790904589941888_);}
	
		.st9{clip-path:url(#SVGID_00000080203962357075110890000012268102805725016981_);fill:url(#SVGID_00000068640842416573504670000009480276990788190343_);}
	
		.st10{clip-path:url(#SVGID_00000065050591427166791370000002195855763151291827_);fill:url(#SVGID_00000074417105682381709100000004898331128632035242_);}
	
		.st11{clip-path:url(#SVGID_00000158024883305046553130000007454763057419702973_);fill:url(#SVGID_00000154390663226733427540000002570175503411819137_);}
	.st12{clip-path:url(#SVGID_00000158024883305046553130000007454763057419702973_);}
	
		.st13{clip-path:url(#SVGID_00000176029841879540903190000012712884299969197463_);fill:url(#SVGID_00000183944251033107770760000008578235293350154936_);}
	
		.st14{clip-path:url(#SVGID_00000073001265052504396220000013486892895548398781_);fill:url(#SVGID_00000132778274218238114930000017091999916633135782_);}
	
		.st15{clip-path:url(#SVGID_00000147216845674003264520000014557793661453128580_);fill:url(#SVGID_00000028323776315203547890000000274324684936384433_);}
	
		.st16{clip-path:url(#SVGID_00000044870335964559511460000013314555005604931979_);fill:url(#SVGID_00000107561696558390168600000017317040912971254411_);}
	
		.st17{clip-path:url(#SVGID_00000028320216041219678310000015430165033809098172_);fill:url(#SVGID_00000055684614176753606270000016905747006307656844_);}
	
		.st18{clip-path:url(#SVGID_00000102544374871722963650000013815030823872433841_);fill:url(#SVGID_00000181774976225507631780000004875074434951405247_);}
	.st19{clip-path:url(#SVGID_00000102544374871722963650000013815030823872433841_);}
</style>
<g>
	<defs>
		<path id="SVGID_1_" d="M380.8,321.1l70.2-68.4c7.7-7.5,10.4-18.5,7.1-28.7s-12-17.5-22.6-19.1l-97-14.1L295.1,103
			c-4.8-9.6-14.4-15.6-25.1-15.6s-20.4,6-25.1,15.6l-43.4,87.9l-97,14.1c-10.6,1.5-19.3,8.8-22.6,19.1c-3.3,10.2-0.6,21.2,7.1,28.7
			l70.2,68.4l-16.6,96.6c-1.8,10.6,2.5,21.1,11.1,27.4c4.9,3.6,10.6,5.4,16.4,5.4c4.4,0,8.9-1.1,13.1-3.2l86.8-45.6l86.8,45.6
			c9.5,5,20.8,4.2,29.5-2.1c8.7-6.3,13-16.8,11.1-27.4L380.8,321.1z M372,425.5c-0.9,0.6-2.2,1.2-3.9,0.3l-92.4-48.6
			c-3.5-1.9-7.8-1.9-11.3,0l-92.4,48.6c-1.7,0.9-3.1,0.3-3.9-0.3c-0.7-0.5-1.8-1.7-1.5-3.7L184.2,319c0.7-3.9-0.6-7.9-3.5-10.7
			l-74.8-72.9c-1.4-1.4-1.2-3-0.9-3.8c0.3-0.8,1-2.3,3-2.5l103.3-15c3.9-0.6,7.4-3.1,9.1-6.6l46.2-93.6c0.9-1.8,2.5-2.1,3.3-2.1
			s2.5,0.3,3.3,2.1l46.2,93.6c1.8,3.6,5.2,6.1,9.1,6.6L432,229c2,0.3,2.7,1.7,3,2.5c0.3,0.8,0.5,2.4-0.9,3.8l-74.8,72.9
			c-2.9,2.8-4.2,6.8-3.5,10.7l17.7,102.9C373.8,423.9,372.7,425,372,425.5L372,425.5z"/>
	</defs>
	<clipPath id="SVGID_00000040533497318272100260000001482769717103360131_">
		<use xlink:href="#SVGID_1_"  style="overflow:visible;"/>
	</clipPath>
	
		<linearGradient id="SVGID_00000181788960539143608420000007056811427019516815_" gradientUnits="userSpaceOnUse" x1="271.4985" y1="540.8271" x2="271.4985" y2="-11.0629">
		<stop  offset="0" style="stop-color:#FF36DF"/>
		<stop  offset="1" style="stop-color:#42E8FE"/>
	</linearGradient>
	
		<rect x="-4.4" y="-11.1" style="clip-path:url(#SVGID_00000040533497318272100260000001482769717103360131_);fill:url(#SVGID_00000181788960539143608420000007056811427019516815_);" width="551.9" height="551.9"/>
</g>
<g>
	<defs>
		<path id="SVGID_00000096764775547304105470000017184107115926099587_" d="M270,60.1c6.7,0,12.1-5.4,12.1-12.1V15.1
			c0-6.7-5.4-12.1-12.1-12.1s-12.1,5.4-12.1,12.1V48C257.9,54.7,263.3,60.1,270,60.1z"/>
	</defs>
	<clipPath id="SVGID_00000010991637290811704990000007367108837384163971_">
		<use xlink:href="#SVGID_00000096764775547304105470000017184107115926099587_"  style="overflow:visible;"/>
	</clipPath>
	
		<linearGradient id="SVGID_00000120522861689576339380000012363803989103193999_" gradientUnits="userSpaceOnUse" x1="271.4985" y1="540.8271" x2="271.4985" y2="-11.0629">
		<stop  offset="0" style="stop-color:#FF36DF"/>
		<stop  offset="1" style="stop-color:#42E8FE"/>
	</linearGradient>
	
		<rect x="-4.4" y="-11.1" style="clip-path:url(#SVGID_00000010991637290811704990000007367108837384163971_);fill:url(#SVGID_00000120522861689576339380000012363803989103193999_);" width="551.9" height="551.9"/>
</g>
<g>
	<defs>
		<path id="SVGID_00000089566003302738028470000008347496533921885835_" d="M105.2,121.3c2.4,2.4,5.5,3.6,8.6,3.6
			c3.1,0,6.2-1.2,8.6-3.6c4.7-4.7,4.7-12.4,0-17.2L99.1,80.9c-4.7-4.7-12.4-4.7-17.2,0c-4.7,4.7-4.7,12.4,0,17.2L105.2,121.3z"/>
	</defs>
	<clipPath id="SVGID_00000125597880127654620560000003925752157855963026_">
		<use xlink:href="#SVGID_00000089566003302738028470000008347496533921885835_"  style="overflow:visible;"/>
	</clipPath>
	
		<linearGradient id="SVGID_00000080920155783276377930000007571762513277775757_" gradientUnits="userSpaceOnUse" x1="271.4985" y1="540.8271" x2="271.4985" y2="-11.0629">
		<stop  offset="0" style="stop-color:#FF36DF"/>
		<stop  offset="1" style="stop-color:#42E8FE"/>
	</linearGradient>
	
		<rect x="-4.4" y="-11.1" style="clip-path:url(#SVGID_00000125597880127654620560000003925752157855963026_);fill:url(#SVGID_00000080920155783276377930000007571762513277775757_);" width="551.9" height="551.9"/>
</g>
<g>
	<defs>
		<path id="SVGID_00000035502021779813835510000007395129895171471256_" d="M49.1,256.8H16.1c-6.7,0-12.1,5.4-12.1,12.1
			s5.4,12.1,12.1,12.1h32.9c6.7,0,12.1-5.4,12.1-12.1S55.8,256.8,49.1,256.8z"/>
	</defs>
	<clipPath id="SVGID_00000061466831074727384120000009484314070772142239_">
		<use xlink:href="#SVGID_00000035502021779813835510000007395129895171471256_"  style="overflow:visible;"/>
	</clipPath>
	
		<linearGradient id="SVGID_00000016071603217769532060000010252561282194630847_" gradientUnits="userSpaceOnUse" x1="271.4985" y1="540.8271" x2="271.4985" y2="-11.0629">
		<stop  offset="0" style="stop-color:#FF36DF"/>
		<stop  offset="1" style="stop-color:#42E8FE"/>
	</linearGradient>
	
		<rect x="-4.4" y="-11.1" style="clip-path:url(#SVGID_00000061466831074727384120000009484314070772142239_);fill:url(#SVGID_00000016071603217769532060000010252561282194630847_);" width="551.9" height="551.9"/>
</g>
<g>
	<defs>
		<path id="SVGID_00000158021388366481873560000003936659350686372533_" d="M105.2,416.6l-23.3,23.3c-4.7,4.7-4.7,12.4,0,17.2
			c2.4,2.4,5.5,3.6,8.6,3.6c3.1,0,6.2-1.2,8.6-3.6l23.3-23.3c4.7-4.7,4.7-12.4,0-17.2S109.9,411.8,105.2,416.6L105.2,416.6z"/>
	</defs>
	<clipPath id="SVGID_00000008109632943554913600000005392615961472131741_">
		<use xlink:href="#SVGID_00000158021388366481873560000003936659350686372533_"  style="overflow:visible;"/>
	</clipPath>
	
		<linearGradient id="SVGID_00000097502026246706435230000014996549488691898010_" gradientUnits="userSpaceOnUse" x1="271.4985" y1="540.8271" x2="271.4985" y2="-11.0629">
		<stop  offset="0" style="stop-color:#FF36DF"/>
		<stop  offset="1" style="stop-color:#42E8FE"/>
	</linearGradient>
	
		<rect x="-4.4" y="-11.1" style="clip-path:url(#SVGID_00000008109632943554913600000005392615961472131741_);fill:url(#SVGID_00000097502026246706435230000014996549488691898010_);" width="551.9" height="551.9"/>
</g>
<g>
	<defs>
		<path id="SVGID_00000042734570576877060570000012908171045606257819_" d="M270,477.7c-6.7,0-12.1,5.4-12.1,12.1v32.9
			c0,6.7,5.4,12.1,12.1,12.1s12.1-5.4,12.1-12.1v-32.9C282.1,483.2,276.7,477.7,270,477.7L270,477.7z"/>
	</defs>
	<clipPath id="SVGID_00000145060504318560042120000006816296482033040571_">
		<use xlink:href="#SVGID_00000042734570576877060570000012908171045606257819_"  style="overflow:visible;"/>
	</clipPath>
	
		<linearGradient id="SVGID_00000004518361712829062520000008451177910247148476_" gradientUnits="userSpaceOnUse" x1="271.4985" y1="540.8271" x2="271.4985" y2="-11.0629">
		<stop  offset="0" style="stop-color:#FF36DF"/>
		<stop  offset="1" style="stop-color:#42E8FE"/>
	</linearGradient>
	
		<rect x="-4.4" y="-11.1" style="clip-path:url(#SVGID_00000145060504318560042120000006816296482033040571_);fill:url(#SVGID_00000004518361712829062520000008451177910247148476_);" width="551.9" height="551.9"/>
</g>
<g>
	<defs>
		<path id="SVGID_00000046339013308266360660000010070870818536558775_" d="M434.8,416.6c-4.7-4.7-12.4-4.7-17.2,0s-4.7,12.4,0,17.2
			l23.3,23.3c2.4,2.4,5.5,3.6,8.6,3.6c3.1,0,6.2-1.2,8.6-3.6c4.7-4.7,4.7-12.4,0-17.2L434.8,416.6z"/>
	</defs>
	<clipPath id="SVGID_00000146501338652985432370000011073900026432382397_">
		<use xlink:href="#SVGID_00000046339013308266360660000010070870818536558775_"  style="overflow:visible;"/>
	</clipPath>
	
		<linearGradient id="SVGID_00000096776721176498648450000007914998131094313102_" gradientUnits="userSpaceOnUse" x1="271.4985" y1="540.8271" x2="271.4985" y2="-11.0629">
		<stop  offset="0" style="stop-color:#FF36DF"/>
		<stop  offset="1" style="stop-color:#42E8FE"/>
	</linearGradient>
	
		<rect x="-4.4" y="-11.1" style="clip-path:url(#SVGID_00000146501338652985432370000011073900026432382397_);fill:url(#SVGID_00000096776721176498648450000007914998131094313102_);" width="551.9" height="551.9"/>
</g>
<g>
	<defs>
		<path id="SVGID_00000178883988101842578970000011856821029126620039_" d="M523.9,256.8h-32.9c-6.7,0-12.1,5.4-12.1,12.1
			s5.4,12.1,12.1,12.1h32.9c6.7,0,12.1-5.4,12.1-12.1S530.6,256.8,523.9,256.8z"/>
	</defs>
	<clipPath id="SVGID_00000183964585080528685430000000692709533806550419_">
		<use xlink:href="#SVGID_00000178883988101842578970000011856821029126620039_"  style="overflow:visible;"/>
	</clipPath>
	
		<linearGradient id="SVGID_00000044159352543348285720000007137887623747609781_" gradientUnits="userSpaceOnUse" x1="271.4985" y1="540.8271" x2="271.4985" y2="-11.0629">
		<stop  offset="0" style="stop-color:#FF36DF"/>
		<stop  offset="1" style="stop-color:#42E8FE"/>
	</linearGradient>
	
		<rect x="-4.4" y="-11.1" style="clip-path:url(#SVGID_00000183964585080528685430000000692709533806550419_);fill:url(#SVGID_00000044159352543348285720000007137887623747609781_);" width="551.9" height="551.9"/>
</g>
<g>
	<defs>
		<path id="SVGID_00000041276753184837680600000007823115768854824889_" d="M440.9,80.9l-23.3,23.3c-4.7,4.7-4.7,12.4,0,17.2
			c2.4,2.4,5.5,3.6,8.6,3.6s6.2-1.2,8.6-3.6L458.1,98c4.7-4.7,4.7-12.4,0-17.2C453.3,76.1,445.7,76.1,440.9,80.9L440.9,80.9z"/>
	</defs>
	<clipPath id="SVGID_00000084527046781332272460000010166806578108823223_">
		<use xlink:href="#SVGID_00000041276753184837680600000007823115768854824889_"  style="overflow:visible;"/>
	</clipPath>
	
		<linearGradient id="SVGID_00000079483968867232433470000013422137872239149201_" gradientUnits="userSpaceOnUse" x1="271.4985" y1="540.8271" x2="271.4985" y2="-11.0629">
		<stop  offset="0" style="stop-color:#FF36DF"/>
		<stop  offset="1" style="stop-color:#42E8FE"/>
	</linearGradient>
	
		<rect x="-4.4" y="-11.1" style="clip-path:url(#SVGID_00000084527046781332272460000010166806578108823223_);fill:url(#SVGID_00000079483968867232433470000013422137872239149201_);" width="551.9" height="551.9"/>
</g>
</svg>
