<?xml version="1.0" encoding="utf-8"?>
<!-- Generator: Adobe Illustrator 26.5.0, SVG Export Plug-In . SVG Version: 6.00 Build 0)  -->
<svg version="1.1" id="Camada_1" xmlns="http://www.w3.org/2000/svg" xmlns:xlink="http://www.w3.org/1999/xlink" x="0px" y="0px"
	 viewBox="0 0 520 316.6" style="enable-background:new 0 0 520 316.6;" xml:space="preserve">
<path d="M395.6,0H124.4C55.7,0,0,55.7,0,124.4v0c0,67.3,53.5,122.2,120.3,124.4c-12,27.2-28.4,43.2-42.1,53.1
	c-6.1,4.4-7.2,8.4-5.8,10.8c3.1,5.2,39.4-1.9,71.3-13.8c18.4-6.8,48.5-20.9,76.7-50h175.1c68.7,0,124.4-55.7,124.4-124.4v0
	C520,55.7,464.3,0,395.6,0z M109.6,161.5l4.5-24.6c0-0.6,0-1.1-0.6-1.7l-17.9-17.4c-1.7-1.7-1.1-5,1.7-5.6l25.2-3.4
	c0.6,0,1.1-0.6,1.7-1.1l11.2-22.4c1.1-2.2,4.5-2.2,5.6,0l11.2,22.4c0,0.6,0.6,1.1,1.7,1.1l24.6,3.4c1.1,0.6,2.2,3.9,0.6,5.6h0
	l-17.9,17.4c-0.6,0.6-0.6,1.1-0.6,1.7l3.9,24.6c0.6,2.8-2.2,4.5-4.5,3.4l-22.4-11.8c-0.6-0.6-1.1-0.6-1.7,0L114,164.9
	C111.8,166,109,164.3,109.6,161.5z M301.8,117.8l-17.9,17.4c-0.6,0.6-0.6,1.1-0.6,1.7l3.9,24.6c0.6,2.8-2.2,4.5-4.5,3.4l-22.4-11.8
	c-0.6-0.6-1.1-0.6-1.7,0l-21.8,11.8c-2.2,1.1-5-0.6-4.5-3.4l4.5-24.6c0-0.6,0-1.1-0.6-1.7l-17.9-17.4c-1.7-1.7-1.1-5,1.7-5.6
	l25.2-3.4c0.6,0,1.1-0.6,1.7-1.1l11.2-22.4c1.1-2.2,4.5-2.2,5.6,0l11.2,22.4c0,0.6,0.6,1.1,1.7,1.1l24.6,3.4
	C302.3,112.8,303.4,116.1,301.8,117.8L301.8,117.8z M424.5,117.8l-17.9,17.4c-0.6,0.6-0.6,1.1-0.6,1.7l3.9,24.6
	c0.6,2.8-2.2,4.5-4.5,3.4l-22.4-11.8c-0.6-0.6-1.1-0.6-1.7,0l-21.8,11.8c-2.2,1.1-5-0.6-4.5-3.4l4.5-24.6c0-0.6,0-1.1-0.6-1.7
	l-17.9-17.4c-1.7-1.7-1.1-5,1.7-5.6l25.2-3.4c0.6,0,1.1-0.6,1.7-1.1l11.2-22.4c1.1-2.2,4.5-2.2,5.6,0l11.2,22.4
	c0,0.6,0.6,1.1,1.7,1.1l24.6,3.4C425.1,112.8,426.2,116.1,424.5,117.8L424.5,117.8z"/>
</svg>
